# AST/ASF file generated using VICON BodyLanguage
# -----------------------------------------------
:version 1.10
:name VICON
:units
  mass 1.0
  length 0.45
  angle deg
:documentation
   .ast/.asf automatically generated from VICON data using
   VICON BodyBuilder and BodyLanguage model FoxedUp or BRILLIANT.MOD
:root
   order TX TY TZ RX RY RZ
   axis XYZ
   position 0 0 0  
   orientation 0 0 0 
:bonedata
  begin
     id 1 
     name lhipjoint
     direction 0.61886 -0.69539 0.365302 
     length 2.20474 
     axis 0 0 0  XYZ
  end
  begin
     id 2 
     name lfemur
     direction 0.34202 -0.939693 0  
     length 6.65149  
     axis 0 0 20  XYZ
    dof rx ry rz
    limits (-160.0 20.0)
           (-70.0 70.0)
           (-60.0 70.0)
  end
  begin
     id 3 
     name ltibia
     direction 0.34202 -0.939693 0   
     length 6.35814   
     axis 0 0 20   XYZ
    dof rx
    limits (-10.0 170.0)
  end
  begin
     id 4 
     name lfoot
     direction 0.101224 -0.278109 0.955201   
     length 2.18766   
     axis -90 7.62852e-016 20   XYZ
    dof rx rz
    limits (-45.0 90.0)
           (-70.0 20.0)
  end
  begin
     id 5 
     name ltoes
     direction 1.53524e-011 -4.21877e-011 1   
     length 1.09206   
     axis -90 7.62852e-016 20   XYZ
    dof rx
    limits (-90.0 20.0)
  end
  begin
     id 6 
     name rhipjoint
     direction -0.600207 -0.708087 0.371972   
     length 2.1652  
     axis 0 0 0  XYZ 
  end
  begin
     id 7 
     name rfemur
     direction -0.34202 -0.939693 0   
     length 6.54691   
     axis 0 0 -20   XYZ
    dof rx ry rz
    limits (-160.0 20.0)
           (-70.0 70.0)
           (-70.0 60.0)
  end
  begin
     id 8 
     name rtibia
     direction -0.34202 -0.939693 0   
     length 6.37474   
     axis 0 0 -20   XYZ
    dof rx
    limits (-10.0 170.0)
 end
 begin
     id 9 
     name rfoot
     direction -0.111266 -0.3057 0.945604   
     length 2.00903  
     axis -90 -7.62852e-016 -20   XYZ
    dof rx rz
    limits (-45.0 90.0)
           (-20.0 70.0)
  end
  begin
     id 10 
     name rtoes
     direction -1.5362e-011 -4.21913e-011 1   
     length 1.00221   
     axis -90 -7.62852e-016 -20   XYZ
    dof rx
    limits (-90.0 20.0)
  end
  begin
     id 11 
     name lowerback
     direction -0.0224561 0.999731 -0.00577314   
     length 2.10409   
     axis 0 0 0   XYZ
    dof rx ry rz
    limits (-20.0 45.0)
           (-30.0 30.0)
           (-30.0 30.0)
  end
  begin
     id 12 
     name upperback
     direction 0.0213126 0.999185 -0.0342817   
     length 2.09783   
     axis 0 0 0   XYZ
    dof rx ry rz
    limits (-20.0 45.0)
           (-30.0 30.0)
           (-30.0 30.0)
  end
  begin
     id 13 
     name thorax
     direction 0.0312356 0.999036 -0.0308451   
     length 2.09788   
     axis 0 0 0   XYZ
    dof rx ry rz
    limits (-20.0 45.0)
           (-30.0 30.0)
           (-30.0 30.0)
  end
  begin
     id 14 
     name lowerneck
     direction -0.0114419 0.996481 0.0830329   
     length 1.38575   
     axis 0 0 0   XYZ
    dof rx ry rz
    limits (-20.0 45.0)
           (-30.0 30.0)
           (-30.0 30.0)
  end
  begin
     id 15 
     name upperneck
     direction -0.0075675 0.996187 -0.0869092   
     length 1.39401   
     axis 0 0 0   XYZ
    dof rx ry rz
    limits (-20.0 45.0)
           (-30.0 30.0)
           (-30.0 30.0)
  end
  begin
     id 16
     name head
     direction -0.00222073 0.999264 -0.0382974  
     length 1.3964  
     axis 0 0 0   XYZ
    dof rx ry rz
    limits (-20.0 45.0)
           (-30.0 30.0)
           (-30.0 30.0)
  end
  begin
     id 17 
     name lclavicle
     direction 0.965962 0.222138 0.132556  
     length 2.81514  
     axis 0 0 0   XYZ
    dof ry rz
    limits (-20.0 10.0)
           (0.0 20.0)
  end
  begin
     id 18 
     name lhumerus
     direction 1 -4.48972e-011 7.03471e-018   
     length 4.47366   
     axis 180 -30 -90   XYZ
    dof rx ry rz
    limits (-60.0 90.0)
           (-90.0 90.0)
           (-90.0 90.0)
  end
  begin
     id 19
     name lradius
     direction 1 -4.48951e-011 -6.22192e-028   
     length 3.19948   
     axis 180 -30 -90   XYZ
    dof rx
    limits (-10.0 170.0)
  end
  begin
     id 20
     name lwrist
     direction 1 -4.48967e-011 -1.24264e-027   
     length 1.59974   
     axis 1.40095e-015 90 90   XYZ
    dof ry
    limits (-180.0 0.0)
 end
  begin
     id 21 
     name lhand
     direction 1 -4.4897e-011 -2.48528e-027   
     length 0.492667   
     axis 1.58582e-015 90 90   XYZ
    dof rx rz
    limits (-90.0 90.0)
           (-45.0 45.0)
  end
  begin
     id 22 
     name lfingers
     direction 1 -4.48996e-011 -4.97056e-027   
     length 0.397201   
     axis 3.17164e-015 90 90   XYZ
    dof rx
    limits (0.0 90.0)
  end
  begin
     id 23
     name lthumb
     direction 0.707107 -6.34981e-011 0.707107   
     length 0.570303   
     axis -90 45 2.85299e-015   XYZ
    dof rx rz
    limits (-45.0 45.0)
           (-45.0 45.0)
  end
  begin
     id 24 
     name rclavicle
     direction -0.961164 0.229034 0.153972   
     length 3.09348  
     axis 0 0 0   XYZ 
    dof ry rz
    limits (-10.0 20.0)
           (-20.0 0.0)
  end
  begin
     id 25 
     name rhumerus
     direction -1 -4.48971e-011 -9.06263e-028  
     length 4.3269   
     axis 180 30 90   XYZ
    dof rx ry rz
    limits (-90.0 60.0)
           (-90.0 90.0)
           (-90.0 90.0)
  end
  begin
     id 26 
     name rradius
     direction -1 -4.48953e-011 1.44659e-027   
     length 3.1896   
     axis 180 30 90   XYZ
    dof rx
    limits (-10.0 170.0)
  end
  begin
     id 27 
     name rwrist
     direction -1 -4.48988e-011 -1.24264e-027   
     length 1.5948   
     axis 1.40095e-015 -90 -90   XYZ
    dof ry
    limits (-180.0 0.0)
  end
  begin
     id 28
     name rhand
     direction -1 -4.49033e-011 -2.48528e-027   
     length 0.464496   
     axis 1.58582e-015 -90 -90   XYZ
    dof rx rz
    limits (-90.0 90.0)
           (-45.0 45.0)
  end
  begin
     id 29
     name rfingers
     direction -1 -4.48905e-011 -4.97056e-027   
     length 0.374489   
     axis 3.17164e-015 -90 -90   XYZ
    dof rx
    limits (0.0 90.0)
  end
  begin
     id 30
     name rthumb
     direction -0.707107 -6.34909e-011 0.707107   
     length 0.537693   
     axis -90 -45 -2.85299e-015   XYZ
    dof rx rz
    limits (-45.0 45.0)
           (-45.0 45.0)
  end
:hierarchy
  begin
    root lhipjoint rhipjoint lowerback
    lhipjoint lfemur
    lfemur ltibia
    ltibia lfoot
    lfoot ltoes
    rhipjoint rfemur
    rfemur rtibia
    rtibia rfoot
    rfoot rtoes
    lowerback upperback
    upperback thorax
    thorax lowerneck lclavicle rclavicle
    lowerneck upperneck
    upperneck head
    lclavicle lhumerus
    lhumerus lradius
    lradius lwrist
    lwrist lhand lthumb
    lhand lfingers
    rclavicle rhumerus
    rhumerus rradius
    rradius rwrist
    rwrist rhand rthumb
    rhand rfingers
  end

#!OML:ASF G:\acrobat\cartwheel_test 2\Patient 1\Session 2\acrobat4.ASF
:FULLY-SPECIFIED
:DEGREES
1410
root 9.3389 22.9982 -11.1604 367.261 80.3696 187.249
lowerback -2.50786 1.1188 -2.05246
upperback -9.6274 1.65337 1.45448
thorax -8.82872 1.14057 2.58446
lowerneck -27.271 -2.12306 -4.39956
upperneck -4.99429 -1.14975 2.71585
head 2.58059 -0.146091 1.45946
rclavicle -1.94809e-014 -3.02153e-014
rhumerus 78.5639 -27.0852 -53.4751
rradius 41.2217
rwrist 12.7957
rhand -37.7772 -83.4768
rfingers 7.12502
rthumb -10.8244 113.178
lclavicle -1.94809e-014 -3.02153e-014
lhumerus 67.7362 34.8476 38.254
lradius 46.1459
lwrist 2.79877
lhand -68.2558 124.568
lfingers 7.12502
lthumb -39.97 -260.667
rfemur -12.477 4.15007 24.5858
rtibia 47.2422
rfoot -16.481 -22.9385
rtoes -65.9546
lfemur -12.3947 4.38137 -22.5103
ltibia 47.8875
lfoot -11.2178 -2.28982
ltoes -63.9964
1411
root 9.35106 23.0174 -11.1623 367.377 80.2845 187.347
lowerback -2.48068 1.13452 -2.04728
upperback -9.65243 1.6727 1.42196
thorax -8.8724 1.14961 2.54513
lowerneck -27.1977 -2.14439 -4.37556
upperneck -4.92585 -1.19616 2.72099
head 2.59447 -0.174032 1.45262
rclavicle -2.38542e-014 -8.34896e-015
rhumerus 78.7008 -26.9396 -53.87
rradius 41.0575
rwrist 13.1571
rhand -37.7513 -83.5531
rfingers 7.12502
rthumb -10.7994 113.255
lclavicle -2.38542e-014 -8.34896e-015
lhumerus 68.1572 34.7512 38.3991
lradius 45.6411
lwrist 2.81899
lhand -68.3205 117.598
lfingers 7.12502
lthumb -40.0309 -267.619
rfemur -12.5036 4.03848 24.5649
rtibia 47.2271
rfoot -16.7082 -22.6446
rtoes -65.8716
lfemur -12.3865 4.44259 -22.4877
ltibia 47.876
lfoot -11.2046 -2.31696
ltoes -64.0236
1412
root 9.36372 23.0334 -11.1654 366.791 80.222 186.726
lowerback -2.43598 1.17186 -1.93151
upperback -9.70647 1.72861 1.41689
thorax -8.95783 1.17132 2.47016
lowerneck -27.1832 -2.193 -4.41139
upperneck -4.82729 -1.25787 2.76059
head 2.62625 -0.206376 1.46468
rclavicle 1.97393e-013 3.89618e-014
rhumerus 78.7108 -26.7371 -54.3364
rradius 40.9576
rwrist 13.6171
rhand -37.6485 -83.8398
rfingers 7.12502
rthumb -10.7002 113.547
lclavicle 1.97393e-013 3.89618e-014
lhumerus 68.8292 34.4796 38.8999
lradius 45.0414
lwrist 2.31778
lhand -68.5566 117.821
lfingers 7.12502
lthumb -40.253 -267.328
rfemur -12.5087 4.02654 24.7101
rtibia 47.195
rfoot -15.701 -22.8046
rtoes -65.9612
lfemur -12.3823 4.55404 -22.3175
ltibia 47.8699
lfoot -11.3105 -2.42262
ltoes -64.1714
1413
root 9.37705 23.0432 -11.169 366.23 80.2562 186.113
lowerback -2.39517 1.17624 -1.78204
upperback -9.72816 1.73729 1.4058
thorax -9.00009 1.16374 2.37322
lowerneck -27.3585 -2.23803 -4.43144
upperneck -4.75322 -1.30351 2.8094
head 2.67347 -0.224972 1.47879
rclavicle -7.7526e-015 0
rhumerus 79.0215 -26.8823 -54.138
rradius 40.5176
rwrist 13.3867
rhand -37.6066 -84.1532
rfingers 7.12502
rthumb -10.6598 113.863
lclavicle -7.7526e-015 0
lhumerus 68.5293 34.6303 38.4672
lradius 45.1041
lwrist 2.45386
lhand -68.9871 121.885
lfingers 7.12502
lthumb -40.6577 -263.139
rfemur -12.4975 4.29902 24.9315
rtibia 47.1661
rfoot -15.0589 -23.2036
rtoes -66.1071
lfemur -12.4107 4.55424 -22.1533
ltibia 47.8613
lfoot -11.3443 -2.50513
ltoes -64.2282
1414
root 9.39011 23.0468 -11.1701 366.604 80.3112 186.448
lowerback -2.35653 1.15861 -1.80914
upperback -9.74018 1.70658 1.36452
thorax -9.0338 1.14815 2.34554
lowerneck -27.4935 -2.24786 -4.41972
upperneck -4.79292 -1.30704 2.80206
head 2.67766 -0.222767 1.47438
rclavicle -9.93923e-016 9.54166e-015
rhumerus 79.2016 -26.8829 -54.2046
rradius 40.3043
rwrist 13.3965
rhand -37.6018 -84.0855
rfingers 7.12502
rthumb -10.6552 113.795
lclavicle -9.93923e-016 9.54166e-015
lhumerus 69.2488 34.507 39.1584
lradius 44.6962
lwrist 1.99899
lhand -69.0254 118.819
lfingers 7.12502
lthumb -40.6937 -266.194
rfemur -12.4961 4.46586 24.9543
rtibia 47.1641
rfoot -15.8572 -23.1966
rtoes -66.1495
lfemur -12.4355 4.55422 -22.1568
ltibia 47.8325
lfoot -11.2682 -2.50183
ltoes -64.217
1415
root 9.40337 23.0485 -11.1685 367.65 80.302 187.519
lowerback -2.26441 1.12796 -2.01022
upperback -9.75652 1.65067 1.31789
thorax -9.10904 1.13393 2.40995
lowerneck -27.3858 -2.23788 -4.41811
upperneck -4.98938 -1.29274 2.77828
head 2.60183 -0.212774 1.46851
rclavicle -1.09133e-013 -3.10104e-014
rhumerus 79.2817 -26.7066 -54.517
rradius 40.2143
rwrist 13.6459
rhand -37.5157 -83.8673
rfingers 7.12502
rthumb -10.5721 113.581
lclavicle -1.09133e-013 -3.10104e-014
lhumerus 69.437 34.4814 39.435
lradius 44.6073
lwrist 1.94147
lhand -68.8004 118.502
lfingers 7.12502
lthumb -40.4823 -266.577
rfemur -12.4711 4.40682 24.8136
rtibia 47.1932
rfoot -16.5642 -22.8697
rtoes -66.0907
lfemur -12.3737 4.57109 -22.2861
ltibia 47.7871
lfoot -11.2707 -2.40871
ltoes -64.2372
